<?xml version="1.0" encoding="UTF-8" standalone="no"?>
<!DOCTYPE svg PUBLIC "-//W3C//DTD SVG 1.1//EN" "http://www.w3.org/Graphics/SVG/1.1/DTD/svg11.dtd">
<svg version="1.1" xmlns="http://www.w3.org/2000/svg" xmlns:xlink="http://www.w3.org/1999/xlink" preserveAspectRatio="xMidYMid meet" viewBox="2.4823436895482445 1.0441107138285188 45.0353126209035 32.91177857234296" width="45.04" height="32.91"><defs><path d="M47.18 1.05L47.2 1.05L47.21 1.05L47.23 1.05L47.24 1.06L47.26 1.06L47.28 1.07L47.29 1.07L47.31 1.08L47.32 1.09L47.34 1.1L47.35 1.1L47.36 1.11L47.38 1.12L47.39 1.14L47.4 1.15L47.42 1.16L47.43 1.17L47.44 1.19L47.45 1.2L47.46 1.21L47.47 1.23L47.48 1.24L47.48 1.26L47.49 1.27L47.5 1.29L47.5 1.3L47.51 1.32L47.51 1.34L47.51 1.35L47.51 1.37L47.52 1.39L47.52 1.4L47.52 1.42L47.52 1.44L47.52 1.45L47.51 1.47L47.51 1.49L47.51 1.5L47.5 1.52L47.5 1.53L47.49 1.55L47.49 1.57L47.48 1.58L34.47 27.11L34.46 27.13L34.45 27.14L34.44 27.16L34.42 27.18L34.41 27.19L34.4 27.21L34.38 27.22L34.37 27.23L34.35 27.24L34.33 27.25L34.32 27.26L34.3 27.27L34.28 27.28L34.26 27.29L34.24 27.29L34.22 27.3L34.2 27.3L34.18 27.31L34.16 27.31L34.14 27.31L34.12 27.31L34.1 27.31L34.08 27.3L34.06 27.3L34.04 27.3L34.02 27.29L20.2 22.62L17.03 33.69L17.03 33.71L17.02 33.72L17.01 33.74L17.01 33.76L17 33.77L16.99 33.79L16.98 33.8L16.96 33.82L16.95 33.83L16.94 33.85L16.93 33.86L16.91 33.87L16.9 33.88L16.89 33.89L16.87 33.9L16.85 33.91L16.84 33.92L16.82 33.93L16.8 33.93L16.79 33.94L16.77 33.94L16.75 33.95L16.73 33.95L16.72 33.95L16.7 33.96L16.66 33.96L16.66 33.96L16.64 33.95L16.62 33.95L16.6 33.95L16.58 33.94L16.56 33.94L16.54 33.93L16.53 33.92L16.51 33.91L16.49 33.91L16.48 33.9L16.46 33.89L16.45 33.87L16.43 33.86L16.42 33.85L16.4 33.83L16.39 33.82L16.38 33.81L16.37 33.79L16.36 33.77L16.35 33.76L16.34 33.74L16.33 33.72L16.33 33.7L16.32 33.69L16.32 33.67L16.31 33.65L14.14 20.49L2.74 16.79L2.72 16.79L2.7 16.78L2.69 16.77L2.67 16.76L2.66 16.75L2.64 16.74L2.63 16.73L2.61 16.72L2.6 16.71L2.59 16.7L2.58 16.69L2.56 16.67L2.55 16.66L2.54 16.64L2.53 16.63L2.53 16.61L2.52 16.6L2.51 16.58L2.5 16.57L2.5 16.55L2.49 16.53L2.49 16.51L2.49 16.5L2.48 16.48L2.48 16.46L2.48 16.44L2.48 16.42L2.48 16.41L2.49 16.39L2.49 16.37L2.49 16.35L2.5 16.34L2.5 16.32L2.51 16.3L2.52 16.29L2.52 16.27L2.53 16.26L2.54 16.24L2.55 16.23L2.56 16.21L2.57 16.2L2.58 16.19L2.6 16.17L2.61 16.16L2.62 16.15L2.64 16.14L2.65 16.13L2.67 16.12L2.68 16.11L2.7 16.1L2.72 16.1L2.73 16.09L47.03 1.06L47.05 1.06L47.06 1.05L47.08 1.05L47.1 1.05L47.11 1.05L47.13 1.04L47.15 1.04L47.16 1.04L47.18 1.05ZM14.59 19.86L14.6 19.86L14.62 19.87L14.63 19.88L14.65 19.88L14.66 19.89L14.68 19.9L14.69 19.91L14.7 19.92L14.72 19.93L14.73 19.94L14.74 19.96L14.75 19.97L14.76 19.98L14.77 19.99L14.78 20.01L14.79 20.02L14.8 20.04L14.81 20.05L14.81 20.07L14.82 20.08L14.82 20.1L14.83 20.12L14.83 20.13L14.84 20.15L16.77 31.91L19.6 22.04L19.6 22.03L19.61 22.02L19.61 22.01L19.62 21.99L19.62 21.98L19.63 21.97L19.63 21.96L19.64 21.95L19.65 21.94L19.65 21.93L19.66 21.92L19.67 21.91L19.68 21.9L19.68 21.89L19.69 21.88L19.7 21.87L19.71 21.86L19.72 21.86L19.73 21.85L19.74 21.84L19.75 21.83L19.76 21.83L19.77 21.82L19.78 21.82L19.79 21.81L19.8 21.8L19.82 21.8L19.83 21.8L19.84 21.79L19.85 21.79L19.86 21.78L19.88 21.78L19.89 21.78L19.9 21.78L19.91 21.78L19.92 21.77L19.94 21.77L19.95 21.77L19.96 21.77L19.97 21.77L19.99 21.77L20 21.78L20.01 21.78L20.02 21.78L20.04 21.78L20.05 21.79L20.06 21.79L20.07 21.79L33.96 26.49L46.41 2.05L4.02 16.43L14.59 19.86Z" id="c6yLfakAY"></path><path d="M19.67 22.18C19.58 22.08 19.61 21.92 19.72 21.84C21.31 20.65 29.29 14.7 43.65 4C26.21 13.85 16.53 19.33 14.59 20.42C14.47 20.49 14.32 20.45 14.26 20.33C14.19 20.21 14.23 20.06 14.35 19.99C17.6 18.16 43.55 3.49 46.8 1.65C46.91 1.59 47.05 1.62 47.12 1.73C47.2 1.84 47.17 1.99 47.07 2.06C44.36 4.08 22.72 20.22 20.01 22.23C19.97 22.27 19.91 22.28 19.86 22.28C19.79 22.28 19.71 22.25 19.67 22.18Z" id="b7DrT7lItZ"></path><path d="" id="i4ZLkUfNgC"></path><path d="" id="f2ss0MxXQL"></path><path d="" id="c22mOvDyXa"></path><path d="M16.5 33.87C16.41 33.77 16.41 33.61 16.51 33.52C17.48 32.58 25.27 25.1 26.25 24.16C26.34 24.07 26.5 24.07 26.59 24.17C26.69 24.27 26.68 24.42 26.59 24.52C25.61 25.45 17.82 32.94 16.85 33.87C16.8 33.92 16.74 33.94 16.68 33.94C16.61 33.94 16.55 33.92 16.5 33.87Z" id="a2g4koUzBI"></path></defs><g><g><g><use xlink:href="#c6yLfakAY" opacity="1" fill="#ffffff" fill-opacity="1"></use><g><use xlink:href="#c6yLfakAY" opacity="1" fill-opacity="0" stroke="#000000" stroke-width="1" stroke-opacity="0"></use></g></g><g><use xlink:href="#b7DrT7lItZ" opacity="1" fill="#ffffff" fill-opacity="1"></use><g><use xlink:href="#b7DrT7lItZ" opacity="1" fill-opacity="0" stroke="#000000" stroke-width="1" stroke-opacity="0"></use></g></g><g><use xlink:href="#i4ZLkUfNgC" opacity="1" fill="#ffffff" fill-opacity="1"></use><g><use xlink:href="#i4ZLkUfNgC" opacity="1" fill-opacity="0" stroke="#323638" stroke-width="1.5" stroke-opacity="1"></use></g></g><g><use xlink:href="#f2ss0MxXQL" opacity="1" fill="#ffffff" fill-opacity="1"></use><g><use xlink:href="#f2ss0MxXQL" opacity="1" fill-opacity="0" stroke="#323638" stroke-width="1.5" stroke-opacity="1"></use></g></g><g><use xlink:href="#c22mOvDyXa" opacity="1" fill="#ffffff" fill-opacity="1"></use><g><use xlink:href="#c22mOvDyXa" opacity="1" fill-opacity="0" stroke="#323638" stroke-width="1.5" stroke-opacity="1"></use></g></g><g><use xlink:href="#a2g4koUzBI" opacity="1" fill="#ffffff" fill-opacity="1"></use><g><use xlink:href="#a2g4koUzBI" opacity="1" fill-opacity="0" stroke="#000000" stroke-width="1" stroke-opacity="0"></use></g></g></g></g></svg>